<svg width="183" height="316" viewBox="0 0 183 316" xmlns="http://www.w3.org/2000/svg"><title>L1</title><g fill="none" fill-rule="evenodd"><path fill="#F54438" d="M121.635 140.697l60.76 35.11-60.937 36.028-60.63-35.73z"/><path fill="#B82428" d="M121.592 211.202l60.864-35.4-.005 70.85-61.035 34.823"/><path fill="#DB352A" d="M121.765 211.202l-60.865-35.4.005 70.85 61.037 34.823"/><path fill="#F54438" d="M61.38 175.21l60.76 35.11-60.94 36.028-60.628-35.73z"/><path fill="#B82428" d="M61.336 245.715l60.864-35.4-.005 70.85L61.16 315.99"/><path fill="#DB352A" d="M61.51 245.715l-60.866-35.4.005 70.85 61.035 34.824"/><g><path fill="#F54438" d="M121.635 70.557l60.76 35.11-60.937 36.028-60.63-35.73z"/><path fill="#B82428" d="M121.592 141.062l60.864-35.4-.005 70.85-61.035 34.823"/><path fill="#DB352A" d="M121.765 141.062l-60.865-35.4.005 70.85 61.037 34.823"/></g><g><path fill="#F54438" d="M121.635.417l60.76 35.11-60.937 36.028-60.63-35.73z"/><path fill="#B82428" d="M121.592 70.922l60.864-35.4-.005 70.85-61.035 34.823"/><path fill="#DB352A" d="M121.765 70.922L60.9 35.522l.005 70.85 61.037 34.823"/></g></g></svg>