<svg width="182" height="247" viewBox="0 0 182 247" xmlns="http://www.w3.org/2000/svg"><title>L2</title><g fill="none" fill-rule="evenodd"><path fill="#F54438" d="M60.756 70.635l60.76 35.11-60.687 35.592L.196 105.612z"/><path fill="#B82428" d="M60.837 140.922l60.37-35.4-.006 70.85-60.538 34.823"/><path fill="#DB352A" d="M61.008 140.922l-60.37-35.4.005 70.85 60.54 34.823"/><g><path fill="#F54438" d="M120.756 105.635l60.76 35.11-60.687 35.592-60.633-35.725z"/><path fill="#B82428" d="M120.837 175.922l60.37-35.4-.006 70.85-60.538 34.823"/><path fill="#DB352A" d="M121.008 175.922l-60.37-35.4.005 70.85 60.54 34.823"/></g><g><path fill="#F54438" d="M60.756.635l60.76 35.11L60.83 71.336.196 35.612z"/><path fill="#B82428" d="M60.837 70.922l60.37-35.4-.006 70.85-60.538 34.823"/><path fill="#DB352A" d="M61.008 70.922l-60.37-35.4.005 70.85 60.54 34.823"/></g></g></svg>