<svg width="183" height="246" viewBox="0 0 183 246" xmlns="http://www.w3.org/2000/svg"><title>Г</title><g fill="none" fill-rule="evenodd"><path fill="#F54438" d="M121.635 105.126l60.76 35.11-60.937 36.027-60.63-35.73z"/><path fill="#B82428" d="M121.592 175.63l60.864-35.4-.005 70.85-61.035 34.824"/><path fill="#DB352A" d="M121.765 175.63L60.9 140.23l.005 70.85 61.037 34.824"/><g><path fill="#F54438" d="M61.38.417l60.76 35.11L61.2 71.555.573 35.825z"/><path fill="#B82428" d="M61.336 70.922l60.864-35.4-.005 70.85-61.036 34.823"/><path fill="#DB352A" d="M61.51 70.922L.643 35.522l.005 70.85 61.035 34.823"/></g><g><path fill="#F54438" d="M121.635 34.95l60.76 35.108-60.937 36.028-60.63-35.73z"/><path fill="#B82428" d="M121.592 105.454l60.864-35.4-.005 70.85-61.035 34.823"/><path fill="#DB352A" d="M121.765 105.454L60.9 70.054l.005 70.85 61.037 34.823"/></g></g></svg>