<svg xmlns="http://www.w3.org/2000/svg" xmlns:xlink="http://www.w3.org/1999/xlink" width="7" height="12"><defs><path id="a" d="M3542 3443.87v10.26c0 .48-.4.87-.9.87h-5.2c-.5 0-.9-.4-.9-.87v-10.26c0-.48.4-.87.9-.87h5.2c.5 0 .9.4.9.87zm-4.9-.13c0 .12.05.21.12.21h2.56c.07 0 .12-.1.12-.2 0-.13-.05-.22-.12-.22h-2.56c-.07 0-.12.1-.12.21zm1.97 9.84c0-.3-.25-.56-.57-.56a.57.57 0 0 0-.57.56c0 .3.25.56.57.56.32 0 .57-.25.57-.56zm2.26-9.1h-5.66v7.75h5.66z"/></defs><use xlink:href="#a" opacity=".3" transform="translate(-3535 -3443)"/></svg>