<svg xmlns="http://www.w3.org/2000/svg" xmlns:xlink="http://www.w3.org/1999/xlink" width="7" height="6"><defs><path id="a" d="M3650.14 3294.66l-2.5 4.32a.5.5 0 1 1-.87-.5l2.5-4.32a.5.5 0 1 1 .87.5z"/><path id="b" d="M3650.95 3297.07h-4.98a.5.5 0 1 1 0-1h4.98c.28 0 .5.22.5.5a.5.5 0 0 1-.5.5z"/><path id="c" d="M3649.27 3298.98l-2.49-4.32a.5.5 0 0 1 .87-.5l2.49 4.32a.5.5 0 1 1-.87.5z"/></defs><use fill="#ea2a2a" xlink:href="#a" transform="translate(-3645 -3294)"/><use fill="#ea2a2a" xlink:href="#b" transform="translate(-3645 -3294)"/><use fill="#ea2a2a" xlink:href="#c" transform="translate(-3645 -3294)"/></svg>