<svg xmlns="http://www.w3.org/2000/svg" xmlns:xlink="http://www.w3.org/1999/xlink" width="10" height="10"><defs><path id="a" d="M3538 3302.5c0-1.92.9-2.5 2-2.5s2 .58 2 2.5c0 1.38-.9 2.5-2 2.5s-2-1.12-2-2.5z"/><path id="b" d="M3544.9 3309.72a.55.55 0 0 1-.47.28h-8.86c-.2 0-.37-.1-.48-.28a.68.68 0 0 1-.04-.6l1.13-2.8a.6.6 0 0 1 .26-.3l1.75-1a.1.1 0 0 1 .12 0c.5.42 1.08.64 1.69.64.6 0 1.2-.22 1.69-.64a.1.1 0 0 1 .12 0l1.75 1c.12.06.2.17.26.3l1.13 2.8a.7.7 0 0 1-.04.6z"/></defs><g opacity=".3" transform="translate(-3535 -3300)"><use xlink:href="#a" opacity=".3"/><use xlink:href="#b" opacity=".3"/></g></svg>