<svg xmlns="http://www.w3.org/2000/svg" xmlns:xlink="http://www.w3.org/1999/xlink" width="59" height="59" viewBox="0 0 59 59"><defs><path id="mf65a" d="M10567.42 1482.13c0 1.47-1.2 2.67-2.67 2.67h-20.03a2.67 2.67 0 1 1 0-5.34h20.03c1.47 0 2.67 1.2 2.67 2.67z"/><path id="mf65b" d="M10564.75 1494.81h-20.03a2.67 2.67 0 0 1 0-5.34h20.03a2.67 2.67 0 1 1 0 5.34z"/><path id="mf65c" d="M10544.72 1504.83a2.67 2.67 0 1 1 0-5.34h10.01a2.67 2.67 0 0 1 0 5.34z"/><path id="mf65d" d="M10576.16 1512.57l1.27-2.2v14.71c0 1.47-1.2 2.67-2.67 2.67h-40.06a2.67 2.67 0 0 1-2.67-2.67v-53.41c0-1.47 1.2-2.67 2.67-2.67h40.06c1.48 0 2.67 1.2 2.67 2.67v3.97l-5.34 9.25v-10.55h-34.71v48.07h34.71v-6.65l2.8-1.85c.52-.34.96-.8 1.27-1.34z"/><path id="mf65e" d="M10590.54 1482.32l-16.7 28.92c-.1.18-.24.33-.42.44l-8.72 5.76a1.34 1.34 0 0 1-2.07-1.2l.63-10.43c.01-.2.07-.4.18-.59l16.69-28.9c.16-.3.43-.5.75-.61.24-.07 2.39-.66 5.79 1.3s3.96 4.12 4.01 4.36c.07.32.02.66-.14.95zm-19.86 28.77a8.4 8.4 0 0 0-2.5-2.07 8.37 8.37 0 0 0-3.04-1.13l-.18 3.13a11.93 11.93 0 0 1 3.1 1.8z"/><path id="mf65f" d="M10550.63 1516.55c-.13.24-.27.47-.43.7-.6.86-2.28.34-1.83-.78l.11-.24.14-.37c-.24.17-.47.36-.64.63-.74 1.03-2.44.1-1.73-1.01.5-.7.97-1.41 1.42-2.14a71.24 71.24 0 0 0-5.2 6.07c-.78 1-2.52.01-1.73-1.01a65.23 65.23 0 0 1 5.88-6.89c.86-.84 2-2.24 3.34-2.2.33.02.73.18.87.5.46 1.06 0 2.36-.7 3.59.25.05.47.18.63.44.05.1.1.19.13.28.6-.1 1.2.13 1.68.94.15.27.2.47.2.61 2.53-.41 4.65.23 7.2.23 1.28 0 1.28 2 0 2-2.2 0-4.95-1.16-6.99-.17-.33.16-.8.48-1.2.31-.42-.17-1.04-.34-1.13-.87a3 3 0 0 1-.02-.62z"/></defs><g><g transform="translate(-10532 -1469)"><g><use fill="#ea2a2a" xlink:href="#mf65a"/></g><g><use fill="#ea2a2a" xlink:href="#mf65b"/></g><g><use fill="#ea2a2a" xlink:href="#mf65c"/></g><g><use fill="#ea2a2a" xlink:href="#mf65d"/></g><g><use fill="#ea2a2a" xlink:href="#mf65e"/></g><g><use fill="#ea2a2a" xlink:href="#mf65f"/></g></g></g></svg>