<svg xmlns="http://www.w3.org/2000/svg" xmlns:xlink="http://www.w3.org/1999/xlink" width="117" height="117" viewBox="0 0 117 117"><defs><path id="8q1ga" d="M9879 2557h39v117h-39z"/><path id="8q1gb" d="M9918 2557h39v117h-39z"/><path id="8q1gc" d="M9957 2557h39v117h-39z"/><path id="8q1gd" d="M9888 2566h22v43h-22z"/><path id="8q1ge" d="M9927 2566h22v43h-22z"/><path id="8q1gf" d="M9966 2566h22v43h-22z"/><path id="8q1gg" d="M9888.17 2652a10.83 10.83 0 1 1 21.66 0 10.83 10.83 0 0 1-21.66 0z"/><path id="8q1gh" d="M9899 2665c-7.17 0-13-5.83-13-13s5.83-13 13-13 13 5.83 13 13-5.83 13-13 13zm0-21.67a8.68 8.68 0 1 0 .02 17.35 8.68 8.68 0 0 0-.02-17.35z"/><path id="8q1gi" d="M9927.17 2652a10.83 10.83 0 1 1 21.66 0 10.83 10.83 0 0 1-21.66 0z"/><path id="8q1gj" d="M9938 2665c-7.17 0-13-5.83-13-13s5.83-13 13-13 13 5.83 13 13-5.83 13-13 13zm0-21.67a8.68 8.68 0 1 0 .02 17.35 8.68 8.68 0 0 0-.02-17.35z"/><path id="8q1gk" d="M9966.17 2652a10.83 10.83 0 1 1 21.66 0 10.83 10.83 0 0 1-21.66 0z"/><path id="8q1gl" d="M9977 2665c-7.17 0-13-5.83-13-13s5.83-13 13-13 13 5.83 13 13-5.83 13-13 13zm0-21.67a8.68 8.68 0 1 0 .02 17.35 8.68 8.68 0 0 0-.02-17.35z"/></defs><g><g transform="translate(-9879 -2557)"><g><use fill="#802f34" xlink:href="#8q1ga"/></g><g><use fill="#c03a2b" xlink:href="#8q1gb"/></g><g><use fill="#e64c3c" xlink:href="#8q1gc"/></g><g><use fill="#fff" xlink:href="#8q1gd"/></g><g><use fill="#fff" xlink:href="#8q1ge"/></g><g><use fill="#fff" xlink:href="#8q1gf"/></g><g><g><use fill="#802f34" xlink:href="#8q1gg"/></g><g><use fill="#ecf0f1" xlink:href="#8q1gh"/></g></g><g><g><use fill="#802f34" xlink:href="#8q1gi"/></g><g><use fill="#ecf0f1" xlink:href="#8q1gj"/></g></g><g><g><use fill="#802f34" xlink:href="#8q1gk"/></g><g><use fill="#ecf0f1" xlink:href="#8q1gl"/></g></g></g></g></svg>