<svg xmlns="http://www.w3.org/2000/svg" xmlns:xlink="http://www.w3.org/1999/xlink" width="155" height="118"><defs><path id="a" d="M10528.44 565.2c0 9.92-3.85 19.25-10.84 26.27l-3.86 3.86c-1.44 1.45-3.2 3.22-5.3 5.3l-44.08 44.13a3.8 3.8 0 0 1-5.37-.03l-35.53-35.7-10.18-10.22-7.42-7.46a36.94 36.94 0 0 1-10.86-26.23 36.83 36.83 0 0 1 10.8-26.26 36.6 36.6 0 0 1 26.09-10.86c9.87 0 19.18 3.9 26.16 10.91l3.71 3.73 3.65-3.67a36.63 36.63 0 0 1 26.14-10.88c9.87 0 19.12 3.83 26.1 10.85a36.81 36.81 0 0 1 10.79 26.26zm-7.64 0a29.3 29.3 0 0 0-8.57-20.83 29.13 29.13 0 0 0-20.71-8.61 29.1 29.1 0 0 0-20.74 8.64l-6.33 6.37a3.8 3.8 0 0 1-5.4 0l-6.4-6.43a29.12 29.12 0 0 0-20.76-8.64c-7.81 0-15.16 3.07-20.68 8.61a29.19 29.19 0 0 0-8.57 20.8c0 7.88 3.05 15.27 8.6 20.84l9.12 9.17 10.4 10.45 30.92 31.06 39.52-39.56 5.52-5.52 3.47-3.48 2.04-2.03a29.19 29.19 0 0 0 8.57-20.84z"/><path id="b" d="M10474.24 578.34c-.66 1.96.07 4.22 1.62 5.05l69.89 37.3c1.55.83 3.35-.08 4-2.03.67-1.96-.06-4.22-1.61-5.05l-69.89-37.3c-1.55-.83-3.35.08-4 2.03z"/><path id="c" d="M10404.86 613.61c-1.55.83-2.28 3.1-1.62 5.05.66 1.95 2.46 2.86 4.01 2.03l69.89-37.3c1.55-.83 2.27-3.1 1.62-5.05-.66-1.95-2.46-2.86-4.01-2.03z"/><path id="d" d="M10503 576a4 4 0 0 1 4 4v13a4 4 0 1 1-8 0v-13a4 4 0 0 1 4-4z"/></defs><use fill="#fff" xlink:href="#a" transform="translate(-10395 -528)"/><use fill="#fff" xlink:href="#b" transform="translate(-10395 -528)"/><use fill="#fff" xlink:href="#c" transform="translate(-10395 -528)"/><use fill="#fff" xlink:href="#d" transform="translate(-10395 -528)"/></svg>