<svg xmlns="http://www.w3.org/2000/svg" xmlns:xlink="http://www.w3.org/1999/xlink" width="59" height="46"><defs><path id="a" d="M410.4 185.72a14 14 0 0 1-4.08 9.93L386.2 215.8a1.44 1.44 0 0 1-2.03 0c-5.43-5.48-9.9-9.97-13.42-13.5l-3.84-3.87-2.8-2.82a13.98 13.98 0 0 1-4.11-9.92 13.94 13.94 0 0 1 4.08-9.93 13.87 13.87 0 0 1 19.74.02l1.4 1.4 1.38-1.38a13.83 13.83 0 0 1 9.87-4.12 13.93 13.93 0 0 1 13.94 14.04zm-2.88 0a11.09 11.09 0 0 0-11.06-11.14c-2.95 0-5.74 1.17-7.83 3.27l-2.4 2.41c-.56.57-1.47.57-2.04 0l-2.41-2.43a11 11 0 0 0-15.66-.01 11.04 11.04 0 0 0-3.23 7.87 11.1 11.1 0 0 0 3.24 7.88l3.45 3.46 3.93 3.96 11.68 11.74 19.1-19.13c2.09-2.1 3.24-4.9 3.23-7.88z"/><path id="b" d="M371.43 198.9l-2.67 1.4 3.8 3.83 2.69-1.4z"/><path id="c" d="M402.97 194.91l2.7 1.4-3.8 3.82-2.7-1.43z"/><path id="d" d="M389.91 190.73c-.25.74.03 1.6.61 1.91l26.45 14.2c.58.31 1.26-.04 1.51-.78s-.02-1.6-.61-1.92l-26.44-14.19c-.59-.31-1.27.03-1.52.78z"/><path id="e" d="M363.9 204.14c-.59.32-.86 1.18-.61 1.92s.93 1.09 1.51.77l26.44-14.19c.6-.31.87-1.17.62-1.91-.25-.75-.93-1.1-1.52-.78z"/><path id="f" d="M400.82 189.84c.79 0 1.42.63 1.42 1.42v5a1.42 1.42 0 1 1-2.84 0v-5c0-.79.64-1.42 1.42-1.42z"/></defs><use fill="#b31919" xlink:href="#a" transform="translate(-360 -171)"/><use fill="#fff" xlink:href="#b" transform="translate(-360 -171)"/><use fill="#fff" xlink:href="#c" transform="translate(-360 -171)"/><use fill="#3c3c3c" xlink:href="#d" transform="translate(-360 -171)"/><use fill="#3c3c3c" xlink:href="#e" transform="translate(-360 -171)"/><use fill="#3c3c3c" xlink:href="#f" transform="translate(-360 -171)"/></svg>