<svg xmlns="http://www.w3.org/2000/svg" xmlns:xlink="http://www.w3.org/1999/xlink" width="16" height="21"><defs><path id="a" d="M6350.67 66.12v1.75h7.55c.25 0 .45.2.45.44s-.2.44-.45.44h-7.55v4.81c0 .24-.2.44-.45.44a.44.44 0 0 1-.44-.44v-4.81h-1.34a.44.44 0 0 1-.44-.44c0-.24.2-.44.44-.44h1.34v-1.75h-1.34a.44.44 0 0 1-.44-.43c0-.24.2-.44.44-.44h1.34V53.44c0-.24.2-.44.44-.44h7.11a6.62 6.62 0 0 1 6.67 6.56 6.62 6.62 0 0 1-6.67 6.56zm0-.87h6.66a5.82 5.82 0 0 0 5.33-3.47 5.58 5.58 0 0 0-1.24-6.24 5.75 5.75 0 0 0-4.09-1.67h-6.66z"/></defs><use xlink:href="#a" opacity=".2" transform="translate(-6348 -53)"/></svg>