<svg xmlns="http://www.w3.org/2000/svg" xmlns:xlink="http://www.w3.org/1999/xlink" width="32" height="43"><defs><path id="a" d="M1463.33 490.87v3.59h15.11a.896.896 0 1 1 0 1.79h-15.1v9.85c0 .5-.4.9-.9.9a.9.9 0 0 1-.88-.9v-9.85h-2.67a.9.9 0 0 1-.89-.9c0-.5.4-.9.89-.9h2.67v-3.58h-2.67a.9.9 0 0 1-.89-.89c0-.5.4-.9.89-.9h2.67V464.9c0-.5.4-.9.88-.9h14.23c7.36 0 13.33 6.02 13.33 13.44s-5.97 13.43-13.33 13.43zm0-1.79h13.34a11.41 11.41 0 0 0 8.17-3.4 11.61 11.61 0 0 0 3.38-8.24 11.67 11.67 0 0 0-7.06-10.73 11.32 11.32 0 0 0-4.5-.92h-13.33z"/></defs><use xlink:href="#a" opacity=".2" transform="translate(-1458 -464)"/></svg>