<svg xmlns="http://www.w3.org/2000/svg" xmlns:xlink="http://www.w3.org/1999/xlink" width="198" height="52"><defs><path id="a" d="M410.4 185.72a14 14 0 0 1-4.08 9.93L386.2 215.8a1.44 1.44 0 0 1-2.03 0c-5.43-5.48-9.9-9.97-13.42-13.5l-3.84-3.87-2.8-2.82a13.98 13.98 0 0 1-4.11-9.92 13.94 13.94 0 0 1 4.08-9.93 13.87 13.87 0 0 1 19.74.02l1.4 1.4 1.38-1.38a13.83 13.83 0 0 1 9.87-4.12 13.93 13.93 0 0 1 13.94 14.04zm-2.88 0a11.09 11.09 0 0 0-11.06-11.14c-2.95 0-5.74 1.17-7.83 3.27l-2.4 2.41c-.56.57-1.47.57-2.04 0l-2.41-2.43a11 11 0 0 0-15.66-.01 11.04 11.04 0 0 0-3.23 7.87 11.1 11.1 0 0 0 3.24 7.88l3.45 3.46 3.93 3.96 11.68 11.74 19.1-19.13c2.09-2.1 3.24-4.9 3.23-7.88z"/><path id="b" d="M371.43 198.9l-2.67 1.4 3.8 3.83 2.69-1.4z"/><path id="c" d="M402.97 194.91l2.7 1.4-3.8 3.82-2.7-1.43z"/><path id="d" d="M389.91 190.73c-.25.74.03 1.6.61 1.91l26.45 14.2c.58.31 1.26-.04 1.51-.78s-.02-1.6-.61-1.92l-26.44-14.19c-.59-.31-1.27.03-1.52.78z"/><path id="e" d="M363.9 204.14c-.59.32-.86 1.18-.61 1.92s.93 1.09 1.51.77l26.44-14.19c.6-.31.87-1.17.62-1.91-.25-.75-.93-1.1-1.52-.78z"/><path id="f" d="M400.82 189.84c.79 0 1.42.63 1.42 1.42v5a1.42 1.42 0 1 1-2.84 0v-5c0-.79.64-1.42 1.42-1.42z"/><path id="g" d="M448.08 187.8c.15 0 .24 0 .27.03.03.03.04.12.04.28 0 .1-.01.35-.05.78a32.8 32.8 0 0 0-.2 3.93c0 .1-.06.14-.17.14-.12 0-.17-.05-.17-.14 0-1.56-.33-2.69-.99-3.37-.66-.68-1.77-1.02-3.35-1.02h-9.34c-1.1 0-1.98.32-2.64.98-.65.65-.98 1.79-.98 3.4 0 .1-.05.15-.16.15-.1 0-.16-.05-.16-.14 0-1.54-.07-2.76-.22-3.64a6.9 6.9 0 0 1-.09-1.07c0-.16.02-.25.06-.28.04-.02.12-.04.25-.04h1.8l7.11-17.7c.02-.06.08-.09.17-.09.1 0 .15.03.17.09l7.08 17.7zm-15.41 0h12.21l-6.08-15.26zm22.23 1a5.14 5.14 0 0 1-2.88-.82 5.48 5.48 0 0 1-1.94-2.23 6.83 6.83 0 0 1-.69-3.04 5.51 5.51 0 0 1 3.19-5.16 6.62 6.62 0 0 1 2.84-.65c1.1 0 2.07.28 2.9.84.82.56 1.46 1.3 1.9 2.2a6.53 6.53 0 0 1-.14 6.06c-.54.9-1.27 1.6-2.18 2.08-.91.48-1.91.72-3 .72zm.8-.52a3.2 3.2 0 0 0 2.6-1.12c.63-.76.94-1.94.94-3.56 0-1.15-.2-2.2-.6-3.13a5.27 5.27 0 0 0-1.68-2.21 4.05 4.05 0 0 0-2.49-.8c-1.08 0-1.93.37-2.54 1.13-.6.76-.9 1.86-.9 3.28 0 1.16.2 2.22.59 3.2.4.96.95 1.74 1.66 2.33.7.59 1.5.88 2.42.88zm21.58-.2c.04 0 .06.06.06.17 0 .12-.02.18-.06.18-.5 0-.88-.01-1.17-.03l-1.37-.03-1.31.03c-.23.02-.54.03-.94.03-.04 0-.06-.06-.06-.18 0-.11.02-.17.06-.17.59 0 1-.09 1.24-.26.23-.17.35-.51.35-1.01l-.05-.72-.86-6.13-3.57 8.47c-.02.07-.1.11-.23.11a.27.27 0 0 1-.22-.11l-4.11-8.35-.63 5.34c-.04.35-.06.58-.06.7 0 .69.15 1.19.46 1.5.3.3.77.46 1.4.46.05 0 .08.06.08.17 0 .12-.03.18-.08.18-.4 0-.7-.01-.92-.03l-1.17-.03-1.2.03c-.23.02-.55.03-.97.03-.05 0-.08-.06-.08-.18 0-.11.03-.17.08-.17.67 0 1.13-.2 1.39-.58.25-.38.42-1.08.5-2.08l.74-8.32c0-.1.1-.14.28-.14.14 0 .21.02.23.06l4.71 9.47 3.97-9.41c.04-.1.12-.15.26-.15.07 0 .14.02.21.06.07.04.11.09.13.14l1 8.96c.07.63.15 1.07.24 1.33.09.25.25.42.49.51.23.1.63.15 1.18.15zm-32.57 25.63c.04 0 .06.06.06.17 0 .12-.02.18-.06.18-.5 0-.88-.01-1.17-.03l-1.37-.03-1.31.03c-.23.02-.54.03-.94.03-.04 0-.06-.06-.06-.18 0-.11.02-.17.06-.17.59 0 1-.09 1.24-.26s.36-.5.36-1.01l-.06-.72-.86-6.12-3.57 8.46c-.01.07-.09.11-.22.11a.27.27 0 0 1-.23-.11l-4.11-8.35-.63 5.34c-.04.35-.06.58-.06.7 0 .69.15 1.2.46 1.5.3.3.77.46 1.4.46.05 0 .08.06.08.17 0 .12-.03.18-.08.18-.4 0-.7-.01-.92-.03l-1.17-.03-1.2.03c-.22.02-.55.03-.96.03-.06 0-.09-.06-.09-.18 0-.11.03-.17.09-.17.66 0 1.12-.2 1.38-.58.26-.38.42-1.07.5-2.08l.74-8.31c0-.1.1-.15.29-.15.13 0 .2.02.22.06l4.71 9.47 3.97-9.41c.04-.1.13-.15.26-.15.08 0 .15.02.21.06.07.04.11.09.13.15l1 8.95c.08.63.16 1.08.24 1.33.09.25.25.42.49.52.24.1.63.14 1.18.14zm13.76 0c.04 0 .06.06.06.17 0 .12-.02.18-.06.18-.47 0-.85-.01-1.11-.03l-1.4-.03-1.51.03c-.27.02-.63.03-1.09.03-.06 0-.08-.06-.08-.18 0-.11.02-.17.08-.17.55 0 .96-.05 1.23-.14.27-.1.45-.29.54-.57.1-.28.14-.7.14-1.28v-6.96l-7.47 9.53-.06.06c-.02.02-.05.03-.09.03a.29.29 0 0 1-.18-.06c-.05-.04-.07-.08-.07-.12v-8.95c0-.58-.05-1-.15-1.29a.86.86 0 0 0-.52-.56c-.26-.1-.67-.14-1.22-.14-.04 0-.05-.06-.05-.18 0-.11.01-.17.05-.17.48 0 .85 0 1.12.03l1.4.03 1.48-.03c.26-.02.64-.03 1.11-.03.06 0 .09.06.09.17 0 .12-.03.18-.09.18-.55 0-.96.04-1.23.14a.86.86 0 0 0-.54.56c-.1.28-.14.71-.14 1.29v6.96l7.48-9.53a.5.5 0 0 1 .14-.06c.17 0 .26.05.26.15v8.95c0 .58.04 1 .14 1.28s.27.47.53.57c.25.1.66.14 1.21.14zm13.3 0c.1 0 .14.06.14.17 0 .12-.04.18-.14.18-.28 0-.71-.02-1.28-.06-.57-.04-1-.06-1.29-.06-.24 0-.62.02-1.11.06-.53.04-.9.06-1.09.06-.07 0-.1-.06-.1-.18 0-.11.03-.17.1-.17.33 0 .6-.08.82-.24.22-.17.33-.42.33-.77 0-.3-.1-.66-.29-1.07l-3.2-6.87-2.4 5.75c-.34.8-.5 1.46-.5 1.96 0 .83.44 1.24 1.33 1.24.1 0 .15.06.15.17 0 .12-.05.18-.15.18-.2 0-.48-.02-.82-.06a12.57 12.57 0 0 0-2.29 0 8.3 8.3 0 0 1-.91.06c-.08 0-.11-.06-.11-.18 0-.11.03-.17.11-.17.34 0 .7-.24 1.08-.72.39-.48.87-1.4 1.46-2.74l3.28-7.77a.2.2 0 0 1 .19-.12c.08 0 .14.04.15.12l3.54 7.62c.52 1.12.9 1.9 1.17 2.37.27.46.54.78.8.97.27.18.61.27 1.03.27zm5.85.72a5.14 5.14 0 0 1-2.88-.82 5.48 5.48 0 0 1-1.94-2.22 6.84 6.84 0 0 1-.69-3.05 5.51 5.51 0 0 1 3.19-5.16 6.62 6.62 0 0 1 2.84-.65c1.1 0 2.07.28 2.9.84.82.56 1.46 1.3 1.9 2.21a6.52 6.52 0 0 1-.14 6.05c-.54.9-1.27 1.6-2.18 2.08-.91.48-1.91.72-3 .72zm.8-.52a3.2 3.2 0 0 0 2.6-1.12c.63-.75.94-1.94.94-3.56 0-1.15-.2-2.2-.6-3.13a5.27 5.27 0 0 0-1.68-2.2 4.04 4.04 0 0 0-2.49-.82c-1.08 0-1.93.38-2.54 1.14-.6.76-.9 1.86-.9 3.28 0 1.16.19 2.22.59 3.2.4.97.95 1.74 1.66 2.33.7.59 1.5.88 2.42.88zm12.48.5a5.05 5.05 0 0 1-4.9-2.95c-.41-.87-.61-1.78-.61-2.75 0-1.23.3-2.3.9-3.22a6.2 6.2 0 0 1 5.2-2.84c.82 0 1.57.16 2.25.5.67.32 1 .7 1 1.15 0 .23-.07.42-.22.59a.78.78 0 0 1-.6.24c-.44 0-.82-.27-1.14-.8a2.52 2.52 0 0 0-.87-.83 2.75 2.75 0 0 0-1.33-.27c-1.14 0-2.02.42-2.64 1.25a5.59 5.59 0 0 0-.93 3.4c0 1.61.41 2.96 1.23 4.03.82 1.06 2.04 1.6 3.65 1.6a4.2 4.2 0 0 0 2.94-1.01h.06c.06 0 .11.03.16.08.05.06.04.11-.02.15-.64.58-1.3 1-1.97 1.27-.66.27-1.38.4-2.16.4zm14.58-1.91c.06 0 .11.03.16.1s.05.13.01.19a6.15 6.15 0 0 1-4.08 1.61 4.8 4.8 0 0 1-4.5-2.81 6.39 6.39 0 0 1-.58-2.73 6.31 6.31 0 0 1 2.95-5.39c.9-.55 1.9-.82 2.96-.82s1.87.3 2.41.88c.54.59.81 1.4.81 2.41 0 .27-.02.46-.07.57-.05.1-.14.15-.27.15l-7.1.03c-.04.47-.06.84-.06 1.13 0 1.67.39 3.04 1.17 4.09a3.85 3.85 0 0 0 3.28 1.57c.59 0 1.1-.08 1.51-.25.42-.16.88-.4 1.37-.73zm-4-9.27c-.85 0-1.56.27-2.12.82a4.24 4.24 0 0 0-1.13 2.3l5.74-.12c.02-1-.2-1.75-.64-2.25a2.34 2.34 0 0 0-1.85-.75zm14.1-.7c.79 0 1.5.22 2.17.64.67.42 1.2 1.03 1.59 1.83.39.8.58 1.75.58 2.85a6.32 6.32 0 0 1-7.8 6.38 4.8 4.8 0 0 1-1.47-.72v6.15c0 .58.07 1 .23 1.27.15.27.43.46.84.56.4.11 1.03.16 1.87.16.05 0 .08.06.08.18 0 .11-.03.17-.08.17-.65 0-1.15-.01-1.52-.03l-2.05-.03-1.71.03c-.29.02-.69.03-1.2.03-.04 0-.06-.06-.06-.17 0-.12.02-.18.06-.18.64 0 1.12-.05 1.42-.16a1 1 0 0 0 .63-.56c.12-.27.17-.7.17-1.27v-14.41c0-.56-.07-.98-.21-1.26a1.16 1.16 0 0 0-.74-.58 5.9 5.9 0 0 0-1.59-.15c-.05 0-.08-.06-.08-.18 0-.11.03-.17.08-.17h3.34c.21 0 .35.05.42.14.06.1.1.31.1.64v1.5a9.71 9.71 0 0 1 2.48-2.02c.8-.42 1.62-.64 2.45-.64zm-.82 11.33c.66 0 1.27-.21 1.82-.63.56-.4 1-1 1.32-1.77.32-.77.48-1.68.48-2.72 0-1.65-.36-2.94-1.08-3.87a3.34 3.34 0 0 0-2.74-1.38c-.74 0-1.42.18-2.03.56a9 9 0 0 0-1.88 1.63v6.21a4.93 4.93 0 0 0 4.11 1.96zm18.4-.47c.14 0 .22.02.24.05.01.03.02.12.02.27l-.02.78c-.08.85-.12 1.95-.12 3.3 0 .09-.05.14-.16.14-.1 0-.15-.05-.15-.15 0-1.36-.28-2.33-.84-2.88a3.11 3.11 0 0 0-2.3-.84h-6.08c-1.87 0-2.8 1.24-2.8 3.72 0 .1-.06.15-.17.15-.11 0-.17-.05-.17-.15 0-1.34-.04-2.44-.12-3.29l-.02-.78c0-.15.01-.24.04-.27.03-.03.1-.05.24-.05h1.49l4.45-10.91c.04-.08.1-.12.17-.12.08 0 .13.04.17.12l4.74 10.91zm-10.18 0h7.19l-3.71-8.6zm23.49.32c.04 0 .06.06.06.17 0 .12-.02.18-.06.18-.48 0-.85-.01-1.11-.03l-1.4-.03-1.52.03c-.26.02-.62.03-1.08.03-.06 0-.09-.06-.09-.18 0-.11.03-.17.09-.17.55 0 .96-.05 1.23-.14.26-.1.44-.29.54-.57.1-.28.14-.7.14-1.28v-6.96l-7.48 9.53-.05.06c-.02.02-.05.03-.09.03a.29.29 0 0 1-.19-.06c-.04-.04-.07-.08-.07-.12v-8.95c0-.58-.04-1-.14-1.29a.86.86 0 0 0-.53-.56c-.25-.1-.66-.14-1.21-.14-.04 0-.06-.06-.06-.18 0-.11.02-.17.06-.17.48 0 .85 0 1.11.03l1.4.03 1.49-.03c.26-.02.63-.03 1.1-.03.07 0 .1.06.1.17 0 .12-.03.18-.1.18-.54 0-.95.04-1.22.14a.86.86 0 0 0-.54.56c-.1.28-.14.71-.14 1.29v6.96l7.47-9.53a.5.5 0 0 1 .15-.06c.17 0 .25.05.25.15v8.95c0 .58.05 1 .15 1.28.1.28.27.47.53.57.25.1.66.14 1.2.14zm11.47 0c.04 0 .06.06.06.17 0 .12-.02.18-.06.18-.44 0-.78-.01-1.02-.03l-1.46-.03-1.51.03c-.27.02-.64.03-1.12.03-.03 0-.05-.06-.05-.18 0-.11.02-.17.05-.17.57 0 .99-.05 1.25-.14.25-.1.42-.29.5-.57.1-.28.14-.7.14-1.28v-2.83c-.78.04-1.46.25-2.03.63a6.47 6.47 0 0 0-1.77 2.2 34.05 34.05 0 0 1-1.16 1.95c-.18.26-.35.39-.52.39h-2.26c-.04 0-.05-.06-.05-.18 0-.11.01-.17.05-.17.6 0 1.06-.18 1.4-.55.34-.36.61-.72.8-1.08.19-.36.31-.57.37-.65a6 6 0 0 1 1.44-1.68 4.04 4.04 0 0 1 1.76-.83c-1.22-.1-2.1-.4-2.63-.9a2.6 2.6 0 0 1-.8-2c0-.97.32-1.75.94-2.33a3.6 3.6 0 0 1 2.55-.87c.22 0 .66.02 1.3.06.46.06.91.09 1.35.09l1.43-.03c.24-.02.59-.03 1.02-.03.04 0 .06.06.06.17 0 .12-.02.18-.06.18-.53 0-.92.05-1.18.15a.95.95 0 0 0-.54.57c-.1.27-.16.7-.16 1.27v6.47c0 .58.05 1 .16 1.27.1.27.29.46.55.56.27.1.67.16 1.2.16zm-7.16-8.29c0 .9.23 1.65.7 2.24.46.59 1.12.88 1.98.88.44 0 .86-.03 1.26-.09v-3.14c0-.83-.12-1.4-.35-1.7-.22-.3-.68-.44-1.37-.44-.74 0-1.3.17-1.67.5-.37.34-.55.92-.55 1.75z"/></defs><use fill="#b31919" xlink:href="#a" transform="translate(-360 -170)"/><use fill="#fff" xlink:href="#b" transform="translate(-360 -170)"/><use fill="#fff" xlink:href="#c" transform="translate(-360 -170)"/><use fill="#3c3c3c" xlink:href="#d" transform="translate(-360 -170)"/><use fill="#3c3c3c" xlink:href="#e" transform="translate(-360 -170)"/><use fill="#3c3c3c" xlink:href="#f" transform="translate(-360 -170)"/><use fill="#3c3c3c" xlink:href="#g" transform="translate(-360 -170)"/></svg>