<svg xmlns="http://www.w3.org/2000/svg" xmlns:xlink="http://www.w3.org/1999/xlink" width="54" height="60"><defs><path id="a" d="M1093.42 2288.3c-.93 3.57-3.1 4.35-4.27 4.5-.71 1.44-2.29 4.36-3.86 5.83a7.69 7.69 0 0 1-2.43 1.47 10.63 10.63 0 0 1-7.87 0 7.67 7.67 0 0 1-2.42-1.47c-1.58-1.47-3.15-4.4-3.86-5.82-1.16-.16-3.34-.94-4.27-4.5-.5-1.91-.37-3.47.38-4.63a3.6 3.6 0 0 1 1.1-1.1c0-.38.02-.85.07-1.4-.68-.93-1.6-2.95-.46-6.22 1.2-3.46 3.91-4 5.22-4.04.45-.83 1.28-2 2.8-3.07a10.8 10.8 0 0 1 6.2-1.85c2.85 0 5.7 1 8.28 2.9 4.17 3.07 3.8 9.88 3.7 11.11.16 1.04.2 1.94.2 2.58.38.23.78.58 1.11 1.1.75 1.15.88 2.7.38 4.61zm12.19 26.55v9.67c0 .75-.62 1.36-1.37 1.36h-50.62c-.76 0-1.37-.6-1.37-1.36v-9.67a9.59 9.59 0 0 1 6.05-8.95l11.98-4.79a1.37 1.37 0 0 1 1.8.8l3 8.33.6-1.71-.94-2.32a1.37 1.37 0 0 1 1.26-1.89h5.85a1.37 1.37 0 0 1 1.27 1.9l-.95 2.3.6 1.72 3.01-8.32a1.37 1.37 0 0 1 1.8-.8l11.97 4.78a9.59 9.59 0 0 1 6.06 8.95zm-7.3 1.05c0-.76-.6-1.37-1.36-1.37h-9.2c-.76 0-1.37.61-1.37 1.37v4.27c0 .76.61 1.37 1.37 1.37h9.2c.75 0 1.37-.61 1.37-1.37z"/></defs><use fill="#ea2a2a" xlink:href="#a" transform="translate(-1052 -2266)"/></svg>