<svg xmlns="http://www.w3.org/2000/svg" xmlns:xlink="http://www.w3.org/1999/xlink" width="79" height="60"><defs><path id="a" d="M372 2298.28l29.14-20.94 27.46 20.94v25.77s.1 1.88-2.1 1.88h-19.48l.04-13.93s.19-2.3-2.9-2.3h-8.25c-2.61 0-2.33 2.3-2.33 2.3l-.03 13.98-19.9.02c-1.73 0-1.66-1.51-1.66-1.51z"/><path id="b" d="M401.22 2266l38.92 30.24s-2.35 3.87-8.61 0l-30.31-23.31-32.33 23.45c-5.4 3.92-7.89 0-7.89 0z"/><path id="c" d="M430.8 2272.61h-7.7l.03 8.08 7.67 5.62z"/></defs><use fill="#ea2a2a" xlink:href="#a" transform="translate(-361 -2266)"/><use fill="#ea2a2a" xlink:href="#b" transform="translate(-361 -2266)"/><use fill="#ea2a2a" xlink:href="#c" transform="translate(-361 -2266)"/></svg>