<svg xmlns="http://www.w3.org/2000/svg" xmlns:xlink="http://www.w3.org/1999/xlink" width="70" height="70"><defs><path id="a" d="M8405 1089h68a1 1 0 0 1 1 1v68a1 1 0 0 1-1 1h-68a1 1 0 0 1-1-1v-68a1 1 0 0 1 1-1z"/><path id="b" d="M8446.7 1140.26c.4.4.4 1.04 0 1.44a1 1 0 0 1-.72.3c-.26 0-.52-.1-.72-.3l-16.96-16.98c-.4-.4-.4-1.04 0-1.44l16.96-16.98a1.02 1.02 0 1 1 1.44 1.44l-16.24 16.26z"/><clipPath id="c"><use fill="#fff" xlink:href="#a"/></clipPath></defs><use fill="#fff" xlink:href="#b" transform="translate(-8404 -1089)"/><use fill="#fff" fill-opacity="0" stroke="#fff" stroke-miterlimit="50" stroke-width="2" clip-path="url(&quot;#c&quot;)" xlink:href="#a" transform="translate(-8404 -1089)"/></svg>