<svg xmlns="http://www.w3.org/2000/svg" xmlns:xlink="http://www.w3.org/1999/xlink" width="27" height="27"><defs><path id="b" d="M5191 2202.04v10.92c0 4.43-3.6 8.04-8.04 8.04h-10.92a8.05 8.05 0 0 1-8.04-8.04v-10.92c0-4.43 3.6-8.04 8.04-8.04h10.92c4.43 0 8.04 3.6 8.04 8.04zm-2.72 0a5.33 5.33 0 0 0-5.32-5.32h-10.92a5.33 5.33 0 0 0-5.32 5.32v10.92a5.33 5.33 0 0 0 5.32 5.32h10.92a5.33 5.33 0 0 0 5.32-5.32z"/><path id="d" d="M5184.65 2207.5a7.15 7.15 0 1 1-14.31-.02 7.15 7.15 0 0 1 14.3.02zm-2.78 0a4.37 4.37 0 1 0-8.74 0 4.37 4.37 0 0 0 8.74 0z"/><path id="f" d="M5183.06 2200.35a1.59 1.59 0 1 1 3.17 0 1.59 1.59 0 0 1-3.17 0z"/><linearGradient id="a" x1="5177" x2="5178" y1="2221" y2="2194" gradientUnits="userSpaceOnUse"><stop offset="0" stop-color="#e09b3d"/><stop offset=".3" stop-color="#c74c4d"/><stop offset=".6" stop-color="#c21975"/><stop offset="1" stop-color="#7024c4"/></linearGradient><linearGradient id="c" x1="5177.65" x2="5177.35" y1="2214.65" y2="2200.35" gradientUnits="userSpaceOnUse"><stop offset="0" stop-color="#e09b3d"/><stop offset=".3" stop-color="#c74c4d"/><stop offset=".6" stop-color="#c21975"/><stop offset="1" stop-color="#7024c4"/></linearGradient><linearGradient id="e" x1="5184.23" x2="5185.06" y1="2201.94" y2="2198.76" gradientUnits="userSpaceOnUse"><stop offset="0" stop-color="#e09b3d"/><stop offset=".3" stop-color="#c74c4d"/><stop offset=".6" stop-color="#c21975"/><stop offset="1" stop-color="#7024c4"/></linearGradient></defs><use fill="url(#a)" xlink:href="#b" transform="translate(-5164 -2194)"/><use fill="url(#c)" xlink:href="#d" transform="translate(-5164 -2194)"/><use fill="url(#e)" xlink:href="#f" transform="translate(-5164 -2194)"/></svg>