<svg xmlns="http://www.w3.org/2000/svg" xmlns:xlink="http://www.w3.org/1999/xlink" width="27" height="27"><defs><path id="a" d="M5215 2207.5a13.5 13.5 0 1 1 27 0 13.5 13.5 0 0 1-27 0z"/><path id="b" d="M5227.8 2212.96s-2.37.14-4.46-1.98c-2.28-2.31-4.3-6.9-4.3-6.9s-.1-.3.02-.45c.14-.16.53-.17.53-.17l2.57-.02s.24.04.41.17c.15.1.23.29.23.29s.41 1.02.96 1.95c1.08 1.8 1.58 2.2 1.94 2 .53-.27.38-2.55.38-2.55s0-.82-.27-1.19c-.22-.29-.62-.37-.8-.4-.15-.01.1-.34.4-.48a5.99 5.99 0 0 1 2.25-.23c.75 0 .96.06 1.26.12.89.21.58 1.02.58 2.95 0 .62-.11 1.49.35 1.78.2.12.68.01 1.88-1.98.57-.94 1-2.05 1-2.05s.1-.2.24-.29c.15-.08.35-.06.35-.06l2.7-.01s.82-.1.95.26c.14.38-.3 1.25-1.4 2.69-1.82 2.35-2.03 2.13-.52 3.5 1.44 1.3 1.74 1.93 1.79 2.01.6.96-.66 1.04-.66 1.04l-2.4.03s-.52.1-1.2-.35c-.9-.6-1.75-2.17-2.41-1.96-.67.2-.65 1.6-.65 1.6s0 .3-.15.47c-.16.17-.49.2-.49.2h-1.07z"/></defs><use fill="#4d76a1" xlink:href="#a" transform="translate(-5215 -2194)"/><use fill="#fff" xlink:href="#b" transform="translate(-5215 -2194)"/></svg>