<svg xmlns="http://www.w3.org/2000/svg" xmlns:xlink="http://www.w3.org/1999/xlink" width="53" height="52" viewBox="0 0 53 52"><defs><path id="tn3ya" d="M2020.06 366a26.03 26.03 0 0 1 26.05 26c0 14.36-11.66 26-26.05 26a26.03 26.03 0 0 1-26.06-26c0-14.36 11.67-26 26.06-26z"/><path id="tn3yb" d="M2006.51 390.88c0-1.1.9-2 2-2h23.1a2 2 0 0 1 2 2v2.24a2 2 0 0 1-2 2h-23.1a2 2 0 0 1-2-2z"/></defs><g><g transform="translate(-1994 -366)"><use fill="#e8e8e8" xlink:href="#tn3ya"/></g><g transform="translate(-1994 -366)"><use fill="#fff" xlink:href="#tn3yb"/></g></g></svg>