<svg xmlns="http://www.w3.org/2000/svg" xmlns:xlink="http://www.w3.org/1999/xlink" width="53" height="52" viewBox="0 0 53 52"><defs><path id="8fu2a" d="M2115.94 366a26.03 26.03 0 0 1 26.06 26c0 14.36-11.67 26-26.06 26a26.03 26.03 0 0 1-26.05-26c0-14.36 11.66-26 26.05-26z"/><path id="8fu2b" d="M2112.82 380.48c0-1.1.9-2 2-2h2.25a2 2 0 0 1 2 2v8.4h8.42a2 2 0 0 1 2 2v2.24a2 2 0 0 1-2 2h-8.42v8.4a2 2 0 0 1-2 2h-2.25a2 2 0 0 1-2-2v-8.4h-8.43a2 2 0 0 1-2-2v-2.24c0-1.1.9-2 2-2h8.43z"/></defs><g><g transform="translate(-2089 -366)"><use fill="#f2ac00" xlink:href="#8fu2a"/></g><g transform="translate(-2089 -366)"><use fill="#781214" xlink:href="#8fu2b"/></g></g></svg>